<?xml version="1.0" encoding="UTF-8"?>
<svg version="1.1" xmlns="http://www.w3.org/2000/svg" width="1254" height="1254">
<path d="M0 0 C1.05411929 -0.00250352 2.10823859 -0.00500704 3.19430089 -0.00758642 C4.36897758 -0.00524525 5.54365427 -0.00290409 6.75392723 -0.00049198 C8.61410803 -0.00267214 8.61410803 -0.00267214 10.51186824 -0.00489634 C13.98525299 -0.00793819 17.45858441 -0.00644411 20.93196556 -0.00311839 C24.69890809 -0.00059769 28.46584617 -0.00383521 32.23278809 -0.00636172 C38.84513542 -0.0099865 45.4574746 -0.00985585 52.06982231 -0.00731456 C61.90230437 -0.00354588 71.73477951 -0.0054586 81.56726152 -0.00852287 C99.12385913 -0.01380027 116.68045311 -0.01332759 134.23705107 -0.01044396 C149.60071925 -0.00793276 164.96438609 -0.00726966 180.32805443 -0.0084666 C181.3454191 -0.00854299 182.36278377 -0.00861937 183.41097768 -0.00869807 C187.54033445 -0.00900939 191.66969122 -0.00932778 195.79904798 -0.00965784 C234.57046701 -0.01271987 273.34188371 -0.00993857 312.11330238 -0.00456094 C346.59266352 0.000185 381.07202096 -0.00023961 415.55138206 -0.00502193 C454.24989377 -0.01037145 492.94840342 -0.01250275 531.64691544 -0.00940967 C535.76894061 -0.00908893 539.89096578 -0.00877609 544.01299095 -0.0084666 C545.53551875 -0.00834799 545.53551875 -0.00834799 547.08880468 -0.00822697 C562.44638719 -0.00708738 577.80396822 -0.0084237 593.16155052 -0.01094615 C610.61608902 -0.01379865 628.0706233 -0.01310507 645.52516127 -0.00766541 C655.30525666 -0.00471838 665.08534294 -0.00455285 674.86543811 -0.00831159 C681.38581657 -0.0105421 687.90618768 -0.00918008 694.42656504 -0.00480682 C698.1498752 -0.00241192 701.87316717 -0.00164777 705.59647679 -0.0052128 C709.59336714 -0.00900104 713.59022822 -0.00517639 717.58711815 -0.00049198 C718.76179484 -0.00283314 719.93647153 -0.00517431 721.14674449 -0.00758642 C722.20086378 -0.0050829 723.25498308 -0.00257938 724.34104538 0 C725.71435314 0.00010164 725.71435314 0.00010164 727.11540449 0.00020533 C729.17052269 0.12534916 729.17052269 0.12534916 730.17052269 1.12534916 C731.82215886 1.30578476 733.48048809 1.42557925 735.13927269 1.51988041 C749.63962178 2.44667902 763.60074178 3.60175245 777.17052269 9.12534916 C779.24905347 9.76613974 781.33280059 10.39016952 783.42052269 11.00034916 C788.91336395 12.68195643 794.01678234 14.60364135 799.17052269 17.12534916 C799.73609886 17.39863041 800.30167503 17.67191166 800.88438988 17.95347416 C814.12217064 24.36520584 826.93554171 31.04384534 838.54942894 40.14488041 C841.12748916 42.17126887 841.12748916 42.17126887 843.94786644 43.76206791 C846.17052269 45.12534916 846.17052269 45.12534916 847.17052269 47.12534916 C848.16052269 47.45534916 849.15052269 47.78534916 850.17052269 48.12534916 C851.33820591 49.22899125 852.49739031 50.34315713 853.60948753 51.50279057 C855.4946031 53.46220221 857.43489367 55.35971002 859.37755394 57.26206791 C860.91281972 58.77888415 862.44797339 60.29581385 863.98302269 61.81284916 C864.77128441 62.58435307 865.55954613 63.35585698 866.37169456 64.15073979 C867.11612816 64.88872807 867.86056175 65.62671635 868.62755394 66.38706791 C869.30793724 67.05697758 869.98832054 67.72688725 870.68932152 68.41709721 C872.17052269 70.12534916 872.17052269 70.12534916 872.17052269 72.12534916 C872.83052269 72.12534916 873.49052269 72.12534916 874.17052269 72.12534916 C874.50052269 73.44534916 874.83052269 74.76534916 875.17052269 76.12534916 C875.83052269 76.12534916 876.49052269 76.12534916 877.17052269 76.12534916 C878.6594226 78.03271789 880.01809167 79.92907298 881.35802269 81.93784916 C881.76021019 82.53242924 882.16239769 83.12700932 882.57677269 83.73960698 C883.78238126 85.52984001 884.97694561 87.32708075 886.17052269 89.12534916 C886.775093 90.0212476 887.37966331 90.91714604 888.00255394 91.84019291 C896.99325748 105.50522007 904.58748825 120.2141416 909.22130394 135.91050541 C909.81655821 137.9265312 910.43544225 139.93589027 911.08849144 141.93394291 C912.6910215 146.87695817 913.50956735 150.92666436 913.17052269 156.12534916 C913.83052269 156.12534916 914.49052269 156.12534916 915.17052269 156.12534916 C917.32360379 172.53401002 917.45837392 188.86568141 917.4274578 205.3847745 C917.4223272 209.32841667 917.42892658 213.27204364 917.43394446 217.21568358 C917.44112928 224.1093778 917.4409726 231.00304064 917.43585014 237.89673626 C917.42825346 248.14828381 917.43216906 258.39980511 917.43826676 268.65135251 C917.44877549 286.965605 917.44789454 305.2798435 917.44210893 323.5940973 C917.43707082 339.62154998 917.43576768 355.64899754 917.43815422 371.67645085 C917.43838338 373.27334497 917.43838338 373.27334497 917.43861716 374.90249958 C917.43923987 379.22442485 917.43987668 383.54635012 917.44053669 387.86827538 C917.44664984 428.38207714 917.44111545 468.89587001 917.43034289 509.40967039 C917.42085223 545.37593657 917.4217015 581.34218858 917.43126488 617.30845463 C917.44198232 657.74983114 917.44621624 698.1911998 917.44004035 738.63257754 C917.43939895 742.94646752 917.43877327 747.2603575 917.43815422 751.57424748 C917.43799607 752.63637803 917.43783791 753.69850859 917.43767496 754.79282491 C917.4354034 770.80721768 917.43805426 786.82160477 917.44311333 802.83599675 C917.44883917 821.05150207 917.44738656 839.26699127 917.43655184 857.48249459 C917.43069297 867.66750944 917.43027606 877.85248933 917.43784419 888.03750324 C917.44234744 894.85136936 917.4395046 901.66520759 917.43083465 908.47906959 C917.42610369 912.35410059 917.42439435 916.22906242 917.43164662 920.10409111 C917.48751046 952.31446877 917.48751046 952.31446877 915.17052269 967.12534916 C914.84052269 967.45534916 914.51052269 967.78534916 914.17052269 968.12534916 C913.62795228 971.05705313 913.20522479 974.00042659 912.76817894 976.94956791 C912.16392165 980.16042528 911.25817119 983.04695051 910.17052269 986.12534916 C909.79153831 987.29710698 909.41255394 988.46886479 909.02208519 989.67613041 C906.7400835 996.67475344 904.32640942 1003.46292163 901.17052269 1010.12534916 C900.51052269 1010.12534916 899.85052269 1010.12534916 899.17052269 1010.12534916 C899.094468 1010.77890385 899.01841331 1011.43245854 898.94005394 1012.10581791 C897.88004653 1016.26513634 895.94633492 1019.70647088 893.85802269 1023.43784916 C893.41724388 1024.22748051 892.97646507 1025.01711186 892.52232933 1025.83067143 C887.76399421 1034.1421847 882.12025894 1041.64168021 876.17052269 1049.12534916 C875.39837425 1050.12179448 874.62622581 1051.11823979 873.83067894 1052.14488041 C865.66958249 1062.46062438 856.63568731 1071.24092192 846.23302269 1079.25034916 C845.15021019 1080.08541996 845.15021019 1080.08541996 844.04552269 1080.93736088 C840.5508098 1083.5641112 837.39015375 1085.78761877 833.17052269 1087.12534916 C833.17052269 1087.78534916 833.17052269 1088.44534916 833.17052269 1089.12534916 C829.7619641 1091.13941626 826.34244536 1093.13408617 822.92052269 1095.12534916 C821.95243675 1095.69769291 820.98435081 1096.27003666 819.98692894 1096.85972416 C819.05235863 1097.40113041 818.11778831 1097.94253666 817.15489769 1098.50034916 C816.2960598 1099.00308354 815.43722191 1099.50581791 814.55235863 1100.02378666 C812.17052269 1101.12534916 812.17052269 1101.12534916 808.17052269 1101.12534916 C808.17052269 1101.78534916 808.17052269 1102.44534916 808.17052269 1103.12534916 C806.70292503 1103.70542729 806.70292503 1103.70542729 805.20567894 1104.29722416 C803.88137565 1104.82305296 802.5571631 1105.34911034 801.23302269 1105.87534916 C800.54152122 1106.14903325 799.85001976 1106.42271733 799.13756371 1106.70469487 C795.56223138 1108.1298859 792.06785651 1109.62239804 788.60802269 1111.31284916 C783.77726921 1113.52617918 778.69920318 1114.42290732 773.50255394 1115.41441166 C770.27404895 1116.10326032 767.2883953 1117.04966289 764.17052269 1118.12534916 C745.95109721 1123.98772978 725.34545307 1122.41882995 706.44142889 1122.38228427 C702.61121671 1122.37714096 698.78101992 1122.38375792 694.95081002 1122.38877094 C688.25934369 1122.39594673 681.56790971 1122.39580475 674.87644196 1122.39067662 C664.92558255 1122.38307154 654.97475014 1122.38699982 645.02389088 1122.39309323 C627.24582002 1122.4035954 609.46776359 1122.40272367 591.68969138 1122.39693541 C576.13199578 1122.3918952 560.57430544 1122.39059513 545.01660919 1122.39298069 C543.98279535 1122.39313346 542.9489815 1122.39328624 541.88383996 1122.39344363 C537.6867814 1122.39406636 533.48972284 1122.39470316 529.29266429 1122.39536316 C489.95891772 1122.40147472 450.6251803 1122.39594439 411.29143514 1122.38516937 C376.37881163 1122.37567817 341.46620271 1122.37652876 306.55357933 1122.38609135 C267.28815632 1122.39681035 228.0227414 1122.40104191 188.75731713 1122.39486682 C184.56841823 1122.39422543 180.37951933 1122.39359975 176.19062042 1122.39298069 C175.1592796 1122.39282254 174.12793878 1122.39266439 173.06534521 1122.39250144 C157.5202827 1122.39023058 141.97522604 1122.39287939 126.43016434 1122.3979398 C108.74796588 1122.40366737 91.06578405 1122.40220933 73.38358765 1122.39137831 C63.49871344 1122.38552249 53.61387525 1122.38509811 43.72900199 1122.39267066 C37.11399564 1122.39717758 30.49901798 1122.39432457 23.88401585 1122.38566112 C20.12341944 1122.38093519 16.36289422 1122.37921005 12.60230022 1122.38647309 C-28.7834002 1122.46038477 -28.7834002 1122.46038477 -47.82947731 1117.12534916 C-48.90068825 1116.83273198 -49.97189919 1116.54011479 -51.07557106 1116.23863041 C-55.60605128 1114.89504367 -60.05856707 1113.37685405 -64.51697731 1111.81284916 C-65.39386208 1111.50597172 -66.27074684 1111.19909428 -67.17420387 1110.88291752 C-73.83333253 1108.52892167 -80.36528014 1105.976428 -86.82947731 1103.12534916 C-86.82947731 1102.46534916 -86.82947731 1101.80534916 -86.82947731 1101.12534916 C-87.71635231 1101.02222416 -88.60322731 1100.91909916 -89.51697731 1100.81284916 C-95.7810108 1099.51276674 -100.99339044 1095.09836995 -106.30603981 1091.64878666 C-108.81461129 1090.00830897 -108.81461129 1090.00830897 -111.82947731 1089.12534916 C-111.82947731 1088.46534916 -111.82947731 1087.80534916 -111.82947731 1087.12534916 C-112.5552195 1086.86753666 -113.28096169 1086.60972416 -114.02869606 1086.34409916 C-116.94995398 1085.07292417 -119.1382038 1083.58518515 -121.64197731 1081.62534916 C-122.82727028 1080.71269291 -122.82727028 1080.71269291 -124.03650856 1079.78159916 C-124.62818825 1079.23503666 -125.21986794 1078.68847416 -125.82947731 1078.12534916 C-125.82947731 1077.46534916 -125.82947731 1076.80534916 -125.82947731 1076.12534916 C-126.41519508 1076.022627 -127.00091286 1075.91990483 -127.60437965 1075.81406987 C-130.20178331 1075.01011159 -131.45207518 1073.95530003 -133.43103981 1072.10581791 C-134.08588356 1071.49544682 -134.74072731 1070.88507573 -135.41541481 1070.25620854 C-136.08830544 1069.61489995 -136.76119606 1068.97359135 -137.45447731 1068.31284916 C-138.13510231 1067.68314213 -138.81572731 1067.0534351 -139.51697731 1066.40464604 C-142.64219172 1063.46163286 -145.07044501 1061.09537982 -146.82947731 1057.12534916 C-147.48947731 1057.12534916 -148.14947731 1057.12534916 -148.82947731 1057.12534916 C-153.82947731 1051.76820631 -153.82947731 1051.76820631 -153.82947731 1048.12534916 C-154.48947731 1048.12534916 -155.14947731 1048.12534916 -155.82947731 1048.12534916 C-161.2688448 1041.6814138 -165.61449615 1034.40277757 -169.82947731 1027.12534916 C-170.40697731 1026.17788823 -170.98447731 1025.23042729 -171.57947731 1024.25425541 C-181.82947731 1007.26664766 -181.82947731 1007.26664766 -181.82947731 999.12534916 C-182.48947731 999.12534916 -183.14947731 999.12534916 -183.82947731 999.12534916 C-184.16721169 998.01675541 -184.50494606 996.90816166 -184.85291481 995.76597416 C-185.30325265 994.30237618 -185.75378364 992.83883761 -186.20447731 991.37534916 C-186.42619606 990.64573979 -186.64791481 989.91613041 -186.87635231 989.16441166 C-188.16612174 984.97099412 -188.16612174 984.97099412 -189.93103981 980.96519291 C-191.1356128 978.49843693 -191.43256605 976.14889482 -191.82947731 973.43784916 C-192.39370943 969.76811899 -193.01301739 966.16984026 -193.89197731 962.56284916 C-196.05237238 953.10796264 -195.97457239 943.41168371 -195.95811176 933.76269925 C-195.9598648 932.45167561 -195.96161784 931.14065198 -195.963424 929.78990036 C-195.96812764 926.1641843 -195.96666093 922.53849353 -195.96414623 918.91277627 C-195.96250708 914.96307119 -195.96665902 911.01337139 -195.9700554 907.06366801 C-195.97520102 900.14546397 -195.97662806 893.22726693 -195.97559929 886.30906117 C-195.97407317 876.02107774 -195.97823877 865.73310203 -195.98347391 855.4451201 C-195.9931422 836.00036073 -195.99595796 816.555604 -195.99653097 797.11084251 C-195.99699062 782.09360958 -195.99904948 767.07637769 -196.0022316 752.05914509 C-196.00312915 747.73554007 -196.00401896 743.41193505 -196.00490648 739.08833003 C-196.00512752 738.01345004 -196.00534857 736.93857004 -196.00557632 735.83111793 C-196.01173009 705.59868147 -196.01567693 675.36624537 -196.01523304 645.13380826 C-196.01521746 643.99409502 -196.01520188 642.85438179 -196.01518583 641.6801318 C-196.01510272 635.90367021 -196.01500368 630.12720862 -196.01490112 624.35074703 C-196.01488118 623.2035337 -196.01486123 622.05632038 -196.01484068 620.87434301 C-196.01480025 618.55439813 -196.01475845 616.23445325 -196.01471529 613.91450837 C-196.01410258 577.82218695 -196.02160861 541.72987493 -196.03528786 505.6375562 C-196.05065239 465.0820102 -196.05925386 424.52647037 -196.05832464 383.97092128 C-196.05825 379.64543013 -196.0582013 375.31993898 -196.05817032 370.99444783 C-196.05815866 369.92941335 -196.05814701 368.86437888 -196.058135 367.76707063 C-196.05810425 350.63699394 -196.06448679 333.50692541 -196.07310258 316.37685115 C-196.08158436 299.15694663 -196.0825649 281.93705404 -196.07599326 264.71714859 C-196.07230114 254.49155548 -196.07411991 244.26599864 -196.0839356 234.04040939 C-196.08994349 227.20300754 -196.08863114 220.3656319 -196.0814651 213.52823125 C-196.07759045 209.63713631 -196.07678809 205.74611147 -196.08492246 201.85502152 C-196.1470336 170.08490318 -196.1470336 170.08490318 -193.82947731 158.12534916 C-193.49947731 157.79534916 -193.16947731 157.46534916 -192.82947731 157.12534916 C-192.28957177 154.71619083 -191.86583763 152.29309247 -191.42713356 149.86363041 C-190.77068991 146.85600298 -189.82838108 144.03633366 -188.82947731 141.12534916 C-188.22252602 139.08450858 -187.61845386 137.04280996 -187.01697731 135.00034916 C-182.85246121 121.55274807 -176.49185172 109.46868272 -169.82947731 97.12534916 C-169.16947731 97.12534916 -168.50947731 97.12534916 -167.82947731 97.12534916 C-167.72377419 96.5465601 -167.61807106 95.96777104 -167.50916481 95.37144291 C-166.73058801 92.79855981 -165.62369148 91.28474756 -163.95447731 89.18784916 C-162.28863624 87.08252741 -160.78491145 85.04979707 -159.41932106 82.73472416 C-157.58205521 79.71926081 -155.49333621 77.05270105 -153.26697731 74.31284916 C-152.48193825 73.33702885 -151.69689919 72.36120854 -150.88807106 71.35581791 C-150.20873512 70.61976323 -149.52939919 69.88370854 -148.82947731 69.12534916 C-148.16947731 69.12534916 -147.50947731 69.12534916 -146.82947731 69.12534916 C-146.16947731 67.80534916 -145.50947731 66.48534916 -144.82947731 65.12534916 C-144.16947731 65.12534916 -143.50947731 65.12534916 -142.82947731 65.12534916 C-142.33447731 63.64034916 -142.33447731 63.64034916 -141.82947731 62.12534916 C-141.16947731 62.12534916 -140.50947731 62.12534916 -139.82947731 62.12534916 C-139.16947731 60.80534916 -138.50947731 59.48534916 -137.82947731 58.12534916 C-137.16947731 58.12534916 -136.50947731 58.12534916 -135.82947731 58.12534916 C-135.49947731 57.13534916 -135.16947731 56.14534916 -134.82947731 55.12534916 C-132.64978981 53.18784916 -132.64978981 53.18784916 -129.95447731 51.12534916 C-126.4099224 48.43351716 -126.4099224 48.43351716 -123.19666481 45.37534916 C-121.82947731 44.12534916 -121.82947731 44.12534916 -118.82947731 44.12534916 C-118.49947731 43.13534916 -118.16947731 42.14534916 -117.82947731 41.12534916 C-115.48480546 39.3741541 -113.16108321 37.76542146 -110.70447731 36.18784916 C-110.05221169 35.75794682 -109.39994606 35.32804448 -108.72791481 34.88511479 C-104.51417913 32.13030148 -100.20919785 29.60580701 -95.82947731 27.12534916 C-94.28610237 26.14887732 -92.74427773 25.16994802 -91.20447731 24.18784916 C-86.43122364 21.31525759 -81.55814661 19.3244003 -76.33338356 17.41831791 C-73.19644632 16.26076359 -70.11524889 15.02058416 -67.02723122 13.7415601 C-61.72078775 11.55193715 -56.54196804 9.52381383 -50.85682106 8.54722416 C-48.09928512 7.97340166 -45.49923592 7.0197183 -42.82947731 6.12534916 C-33.1060394 3.45040063 -23.41326324 2.50373555 -13.38636208 1.77183354 C-12.42270729 1.70029057 -11.45905251 1.6287476 -10.46619606 1.55503666 C-9.5969651 1.49557866 -8.72773415 1.43612065 -7.83216286 1.37486088 C-4.86847338 1.00561906 -3.35472499 0.00024828 0 0 Z " fill="#2B2218" transform="translate(266.82947731018066,61.874650835990906)"/>
<path d="M0 0 C45.54 0 91.08 0 138 0 C138 2.31 138 4.62 138 7 C136.69546875 7.14695312 135.3909375 7.29390625 134.046875 7.4453125 C116.38879397 9.52109848 116.38879397 9.52109848 102.4375 19.8125 C96.10699976 29.56891802 95.85022772 40.37412832 95.86628723 51.63215637 C95.8628889 53.38238831 95.8628889 53.38238831 95.85942191 55.16797847 C95.85419868 58.39371773 95.85343498 61.61942181 95.85461628 64.84516394 C95.85482083 68.32924968 95.8492964 71.81332718 95.84455872 75.29740906 C95.8362634 82.11845764 95.83350438 88.93949757 95.83294634 95.76055077 C95.83247066 101.30663824 95.83041333 106.85272287 95.82724571 112.39880943 C95.81844231 128.13333033 95.81382586 143.86784442 95.81457619 159.6023678 C95.81463612 160.87391131 95.81463612 160.87391131 95.81469727 162.17114258 C95.81475859 163.44424389 95.81475859 163.44424389 95.81482115 164.74306443 C95.81522756 178.49664381 95.80565835 192.25019582 95.7915589 206.00376729 C95.77718594 220.13597422 95.77028922 234.2681678 95.77115268 248.40038222 C95.77148432 256.33047403 95.76875148 264.26053712 95.75797462 272.19062233 C95.74885754 278.94247393 95.7467043 285.6942838 95.75348405 292.4461389 C95.75674311 295.88838355 95.75682818 299.3305482 95.7481308 302.77278519 C95.74040812 306.51089226 95.74505777 310.2487901 95.75276184 313.9868927 C95.74761828 315.06580066 95.74247471 316.14470862 95.73717529 317.25631076 C95.78227785 327.17995024 96.61138213 336.04644692 103 344 C109.40984734 350.08935497 116.59147833 351.09661332 125.17871094 351.17700195 C126.38146667 351.18983719 127.58422241 351.20267242 128.82342529 351.21589661 C130.1140387 351.22328354 131.4046521 351.23067047 132.734375 351.23828125 C133.40145729 351.24235678 134.06853958 351.2464323 134.75583649 351.25063133 C138.29734477 351.27144133 141.83881507 351.28575627 145.38037109 351.29516602 C148.27219112 351.30396359 151.16352083 351.32469429 154.05517578 351.35668945 C184.99787297 351.92473483 184.99787297 351.92473483 213 340 C213.66283902 339.66419324 214.32567804 339.32838648 215.0086031 338.98240376 C218.23252889 336.94522801 220.52523794 334.94463514 221.46067786 331.11305404 C222.23971582 324.98340816 222.03338079 318.79291291 221.95581055 312.62768555 C221.95846636 310.52467153 221.96460246 308.42165946 221.97395325 306.31866455 C221.98905743 300.6135542 221.9543638 294.90972076 221.9099462 289.20480323 C221.87104553 283.22907735 221.87519854 277.25337263 221.87397766 271.27754211 C221.86565766 261.23925131 221.82705923 251.20144636 221.76831055 241.16333008 C221.70062395 229.57023458 221.67068322 217.97755471 221.6633355 206.38427323 C221.65544784 194.02951621 221.62462245 181.6749047 221.58454156 169.32021356 C221.57423397 165.76696529 221.56766038 162.21372513 221.56171227 158.66046715 C221.55087925 153.06662089 221.52427541 147.47305483 221.48567009 141.8793335 C221.47375454 139.8307659 221.46680309 137.78216225 221.46528244 135.73356056 C221.7467512 117.77208014 221.7467512 117.77208014 214 102 C205.91444497 94.09820759 196.79106054 93.28825863 186 92 C186 89.69 186 87.38 186 85 C226.26 85 266.52 85 308 85 C308 86.98 308 88.96 308 91 C306.09723462 92.90276538 302.61054293 92.49545026 300.0625 92.75 C290.26865678 93.93706212 282.70753117 96.91365496 276.40234375 104.8359375 C269.83692779 114.96752648 270.84821542 128.13698935 270.79467773 139.71142578 C270.78494109 141.08433248 270.77479453 142.45723632 270.76427555 143.83013725 C270.73744051 147.47808421 270.7161521 151.12604297 270.69608307 154.77403259 C270.67633058 158.2080222 270.65148184 161.64196793 270.6270752 165.07592773 C270.55881099 175.09225187 270.49864093 185.10862985 270.4375 195.125 C270.293125 217.52375 270.14875 239.9225 270 263 C317.52 263 365.04 263 414 263 C413.87625 240.828125 413.7525 218.65625 413.625 195.8125 C413.59100098 188.8306958 413.55700195 181.8488916 413.52197266 174.65551758 C413.48203082 168.35682595 413.48203082 168.35682595 413.43954468 162.05815125 C413.42079707 159.26872707 413.40737783 156.47933386 413.39730835 153.68986511 C413.38422971 150.11665427 413.36171717 146.54361277 413.33276629 142.97049654 C413.31954355 141.06071386 413.31564545 139.15087332 413.3122654 137.24104786 C413.16298617 118.44766 413.16298617 118.44766 405.2421875 101.93359375 C396.99366002 94.18644735 387.93453985 93.30538748 377 92 C377 89.69 377 87.38 377 85 C416.6 85 456.2 85 497 85 C497 87.31 497 89.62 497 92 C496.03320312 92.08636719 495.06640625 92.17273438 494.0703125 92.26171875 C484.38364932 93.30711111 476.56126212 94.83536937 469.125 101.625 C464.50152448 108.968167 461.8949378 117.25298757 461.84178162 125.90985107 C461.82712058 127.71917177 461.82712058 127.71917177 461.81216335 129.5650444 C461.80624939 130.90371412 461.80042419 132.24238424 461.79467773 133.58105469 C461.78495982 135.01330473 461.77481421 136.44555193 461.76427555 137.87779617 C461.73723955 141.71257004 461.71605581 145.54735533 461.69608307 149.38217163 C461.67645371 152.98087984 461.65154816 156.57954399 461.6270752 160.17822266 C461.55858169 170.70211527 461.49855829 181.22606162 461.4375 191.75 C461.293125 215.2625 461.14875 238.775 461 263 C512.81 263 564.62 263 618 263 C621.49729261 292.14410509 621.49729261 292.14410509 622.1875 303.5 C622.26790527 304.75248535 622.34831055 306.0049707 622.43115234 307.29541016 C622.99214636 316.54284027 623.24445792 325.73776115 623 335 C621.35 335 619.7 335 618 335 C617.74347656 334.25878906 617.48695313 333.51757812 617.22265625 332.75390625 C612.71440722 320.35242658 607.06291389 307.84637481 598.41015625 297.76171875 C597 296 597 296 596.05859375 293.89453125 C594.71279425 291.48599709 593.497863 291.08881208 591 290 C589.61466025 289.05667527 588.24019005 288.09725712 586.875 287.125 C582.16125557 283.94108696 577.34161445 281.89659381 572 280 C570.96875 279.608125 569.9375 279.21625 568.875 278.8125 C562.36729787 276.97336679 555.72914431 276.84338119 549.01367188 276.79467773 C548.14043526 276.78464501 547.26719864 276.77461229 546.36750031 276.76427555 C543.56794298 276.73313569 540.76837136 276.70822157 537.96875 276.68359375 C536.22948776 276.66516764 534.49022983 276.64632979 532.75097656 276.6270752 C526.33403535 276.55890296 519.91701174 276.49867429 513.5 276.4375 C499.145 276.293125 484.79 276.14875 470 276 C470 316.59 470 357.18 470 399 C515.27663695 402.72700876 515.27663695 402.72700876 560 386 C567.86091533 377.12371644 570.85854578 366.18698856 574 355 C575.65 355 577.3 355 579 355 C579 388.99 579 422.98 579 458 C577.35 458 575.7 458 574 458 C573.76925781 456.96101563 573.53851562 455.92203125 573.30078125 454.8515625 C570.10851385 440.97228396 565.71576376 428.37429252 553.171875 420.14453125 C541.63300819 414.02772358 530.18152989 412.55204972 517.265625 412.48828125 C515.89270474 412.47138765 514.51979949 412.45323134 513.14691162 412.43388367 C509.57638246 412.38688415 506.00591418 412.35675437 502.43518066 412.33044434 C498.77437309 412.3003824 495.11377458 412.25394203 491.453125 412.20898438 C484.30220399 412.12352301 477.15121812 412.0559274 470 412 C470.06064187 427.0995847 470.13821725 442.1990175 470.23571491 457.29840755 C470.28059839 464.31000702 470.32002999 471.32155654 470.34643555 478.33325195 C470.37194384 485.10256185 470.41289849 491.87163946 470.46318626 498.64081001 C470.47984425 501.22068059 470.49136515 503.80058973 470.49761391 506.38050652 C470.5072662 509.99991998 470.53534079 513.61876438 470.56762695 517.23803711 C470.56547432 518.8305555 470.56547432 518.8305555 470.5632782 520.45524597 C470.64024327 526.57424766 470.93643952 532.5521865 474 538 C476.30967596 539.63694171 476.30967596 539.63694171 479 540 C480.11139343 540.30923149 480.11139343 540.30923149 481.24523926 540.62471008 C490.2875721 542.44551625 499.28858827 542.27156182 508.46875 542.23046875 C510.23946092 542.22927439 512.01017248 542.22882433 513.78088379 542.2290802 C517.46887245 542.22752538 521.15676265 542.2193079 524.84472656 542.20581055 C529.5736527 542.18872199 534.30247206 542.18499962 539.03142548 542.18575573 C542.67733785 542.18548422 546.32322686 542.18000761 549.96913147 542.17275429 C551.71387048 542.16957306 553.45861213 542.16760149 555.20335388 542.16686058 C557.63236034 542.16469689 560.06125243 542.15595492 562.49023438 542.14526367 C563.21022614 542.14571686 563.9302179 542.14617004 564.67202759 542.14663696 C567.72576993 542.12694395 570.07835392 541.97388203 573 541 C574.561848 540.92290695 576.1245585 540.86276305 577.6875 540.8125 C596.08623851 539.25080336 612.58489919 528.10916739 624.2578125 514.3359375 C629.53811615 507.3162397 633.77898579 499.68172151 638 492 C638.85658203 490.47052734 638.85658203 490.47052734 639.73046875 488.91015625 C642.44163207 484.03006228 644.92624719 479.18438202 647 474 C648.65 474 650.3 474 652 474 C650.61524006 487.5332953 648.3917503 500.86224245 646 514.25 C645.28956754 518.25483859 644.58183861 522.2601507 643.875 526.265625 C643.70718018 527.21393188 643.53936035 528.16223877 643.36645508 529.13928223 C642.29258685 535.23806865 641.29055564 541.34005526 640.39453125 547.46777344 C640.00144193 549.99074526 639.50076503 552.49617484 639 555 C553.2 555 467.4 555 379 555 C379 553.02 379 551.04 379 549 C380.57587891 548.74476563 380.57587891 548.74476563 382.18359375 548.484375 C395.82768495 546.54058463 395.82768495 546.54058463 406.9375 539.0625 C412.39697401 530.95600829 413.29821042 522.22589121 413.2784729 512.69885254 C413.2871615 511.18176862 413.2871615 511.18176862 413.29602563 509.63403654 C413.31297415 506.25924686 413.31589773 502.88459436 413.31884766 499.50976562 C413.32814937 497.08496772 413.3383184 494.66017301 413.34928894 492.23538208 C413.37092797 487.02224706 413.38655407 481.80913117 413.39665604 476.59596252 C413.41127206 469.05869848 413.43681699 461.52150227 413.46498732 453.98427814 C413.51040232 441.7541852 413.54703895 429.52408246 413.578125 417.29394531 C413.60833225 405.41697468 413.64271506 393.54002811 413.68261719 381.66308594 C413.68633945 380.55284329 413.68633945 380.55284329 413.69013691 379.4201715 C413.71176027 372.9813325 413.73369896 366.54249459 413.75566864 360.10365677 C413.84977817 332.40246496 413.92318682 304.70125767 414 277 C366.48 277 318.96 277 270 277 C270 306.7 270 336.4 270 367 C273.3 367 276.6 367 280 367 C282.96021449 367.21433269 285.89094359 367.45914704 288.83984375 367.76953125 C290.04949547 367.89203499 290.04949547 367.89203499 291.28358459 368.01701355 C292.98041007 368.19024294 294.6769796 368.36599664 296.37329102 368.54418945 C298.89984017 368.8085594 301.42730444 369.06209512 303.95507812 369.31445312 C313.20237399 370.25869486 322.37625919 371.43292591 331.54527283 372.96748352 C336.41874855 373.78049979 341.27058349 374.38391033 346.1875 374.875 C351.85027009 375.56502536 357.17509827 376.67582855 362.625 378.3125 C363.27621826 378.50118652 363.92743652 378.68987305 364.59838867 378.88427734 C369.40303593 380.42940893 372.4158232 382.56178515 376 386 C376.8125 388.4375 376.8125 388.4375 376 391 C371.08918545 396.61235949 365.61093942 398.47467958 358.62890625 400.77734375 C355.25094725 401.9154505 352.02033161 403.21137279 348.75 404.625 C344.31943245 406.51034789 339.90857704 408.0102154 335.28125 409.328125 C332.57779923 410.1243468 329.95640755 411.10220034 327.328125 412.1171875 C324.23459198 413.29023861 321.11749997 414.39229256 318 415.5 C277.62055638 427.89811823 277.62055638 427.89811823 248 455 C246.86584958 461.76709749 247.47189017 467.79801655 251.19921875 473.59375 C275.23893189 505.71623003 312.26956967 527.9045875 346.09765625 548.50390625 C346.7097998 548.87692871 347.32194336 549.24995117 347.95263672 549.63427734 C349.57390651 550.61853823 351.19892641 551.59661452 352.82421875 552.57421875 C353.54222656 553.04472656 354.26023437 553.51523437 355 554 C355 554.33 355 554.66 355 555 C337.96229014 555.23403118 320.92508473 555.41015052 303.88613319 555.51812172 C295.97383386 555.5695969 288.06253552 555.63971969 280.15087891 555.75439453 C273.25165722 555.85434669 266.35316066 555.91864683 259.45323503 555.94088495 C255.80229709 555.95387729 252.15343273 555.98420608 248.50316238 556.05730057 C244.4186703 556.13841988 240.33773717 556.13988225 236.25244141 556.13525391 C235.05409668 556.17120667 233.85575195 556.20715942 232.62109375 556.24420166 C225.7611955 556.16033532 222.33655903 555.06515987 217.39437866 550.17514038 C215.89969922 548.4759235 214.43212455 546.75226252 213 545 C211.81644738 543.68393933 210.62980202 542.37063929 209.4375 541.0625 C208.2852834 539.71376048 207.13983079 538.359223 206 537 C205.31421875 536.19175781 204.6284375 535.38351562 203.921875 534.55078125 C189.85287768 517.70241907 173.63346354 496.77180011 174.75390625 473.58203125 C174.87572266 472.30392578 174.87572266 472.30392578 175 471 C175.10634766 469.73736328 175.10634766 469.73736328 175.21484375 468.44921875 C176.52821922 458.96044988 182.38026214 451.69119477 189.6328125 445.72265625 C221.45027233 422.56836618 263.60170277 413.63042427 300.96078491 403.3589325 C303.84104123 402.56593715 306.71983468 401.76769814 309.59857178 400.96920776 C311.69726375 400.38956534 313.79801145 399.81786284 315.89892578 399.24633789 C324.82582768 396.78849688 333.17687753 394.04717579 341 389 C340.67 387.35 340.34 385.7 340 384 C333.91867712 381.82324013 327.90456534 380.20632998 321.5625 379 C320.6869043 378.83048828 319.81130859 378.66097656 318.90917969 378.48632812 C316.27442504 377.98165882 313.63774837 377.48875477 311 377 C310.28763184 376.8659375 309.57526367 376.731875 308.84130859 376.59375 C284.54200028 372.07623153 259.7554315 369.74702546 235.17602539 367.32543945 C233.4671109 367.15033122 231.75851166 366.96959907 230.054102 366.75503117 C224.52515846 366.07566053 219.09470238 365.84831302 213.5276947 365.84178162 C212.61753981 365.83684364 211.70738491 365.83190566 210.76964957 365.82681805 C207.74348878 365.81155473 204.71734903 365.80311296 201.69116211 365.79467773 C199.51252053 365.78509042 197.33388077 365.77507984 195.15524292 365.76467896 C189.25721538 365.73771634 183.3591799 365.71666013 177.46112514 365.69667697 C171.29117191 365.67476393 165.12124288 365.64740132 158.9513092 365.62062073 C147.27497778 365.57076562 135.59863286 365.52580022 123.92227513 365.48259836 C110.6260515 365.43316451 97.32985341 365.37826923 84.03365314 365.32291877 C56.68912478 365.20920901 29.34457309 365.10234612 2 365 C2 362.69 2 360.38 2 358 C3.01578125 357.90203125 4.0315625 357.8040625 5.078125 357.703125 C21.68888597 355.96457389 21.68888597 355.96457389 36 348 C44.27885937 337.19342166 44.15107484 325.19389532 44.14044189 312.11665344 C44.14341302 310.95896381 44.14638414 309.80127418 44.1494453 308.60850304 C44.15657594 305.42200006 44.1593007 302.23553012 44.16004276 299.04902041 C44.16190622 295.60169993 44.16945978 292.15439083 44.17617798 288.70707703 C44.18970819 281.18211023 44.19577737 273.6571488 44.20018864 266.13217187 C44.20295942 261.42665193 44.2071982 256.72113403 44.21169281 252.01561546 C44.2238773 238.96669933 44.23417903 225.9177848 44.2375679 212.86886311 C44.23778747 212.03518615 44.23800703 211.2015092 44.23823325 210.3425693 C44.23845153 209.50699696 44.23866981 208.67142463 44.2388947 207.81053191 C44.23933815 206.11758443 44.23978472 204.42463694 44.24023438 202.73168945 C44.24056652 201.47207207 44.24056652 201.47207207 44.24090537 200.18700787 C44.24485192 186.58571413 44.26230523 172.98447401 44.2855939 159.38320098 C44.30935515 145.39212631 44.32177188 131.4010785 44.32293582 117.40998334 C44.32384977 109.56527256 44.32953134 101.72063173 44.34775543 93.87594032 C44.36322085 87.19565719 44.36823905 80.51546563 44.36001733 73.83516798 C44.35613377 70.43270705 44.35858821 67.03057879 44.37107468 63.62811661 C45.34968105 40.16868976 45.34968105 40.16868976 37 19 C35.2404436 17.19057051 35.2404436 17.19057051 33.3125 15.8125 C32.71050781 15.34457031 32.10851562 14.87664062 31.48828125 14.39453125 C24.80640967 10.64974608 17.50278058 9.40502292 10 8.375 C1.11974606 7.11974606 1.11974606 7.11974606 0 6 C0 4.02 0 2.04 0 0 Z " fill="#EEE6DA" transform="translate(302,341)"/>
<path d="M0 0 C5.27380059 0.50326526 9.17681456 3.25785535 13.5625 6 C14.35664307 6.49113281 15.15078613 6.98226562 15.96899414 7.48828125 C31.11164016 16.9717711 31.11164016 16.9717711 36.62890625 22.6875 C38.08061792 24.26441859 38.08061792 24.26441859 41 25 C42.16768322 26.10364209 43.32686762 27.21780796 44.43896484 28.37744141 C46.32408041 30.33685305 48.26437098 32.23436085 50.20703125 34.13671875 C51.74229703 35.65353498 53.2774507 37.17046469 54.8125 38.6875 C55.60076172 39.45900391 56.38902344 40.23050781 57.20117188 41.02539062 C57.94560547 41.76337891 58.69003906 42.50136719 59.45703125 43.26171875 C60.13741455 43.93162842 60.81779785 44.60153809 61.51879883 45.29174805 C63 47 63 47 63 49 C63.66 49 64.32 49 65 49 C65.33 50.32 65.66 51.64 66 53 C66.66 53 67.32 53 68 53 C69.48889991 54.90736872 70.84756898 56.80372381 72.1875 58.8125 C72.5896875 59.40708008 72.991875 60.00166016 73.40625 60.61425781 C74.61185857 62.40449085 75.80642292 64.20173159 77 66 C77.60457031 66.89589844 78.20914062 67.79179687 78.83203125 68.71484375 C87.82273479 82.37987091 95.41696556 97.08879244 100.05078125 112.78515625 C100.64603552 114.80118203 101.26491956 116.81054111 101.91796875 118.80859375 C103.52049881 123.75160901 104.33904466 127.8013152 104 133 C104.66 133 105.32 133 106 133 C108.1530811 149.40866085 108.28785123 165.74033224 108.25693511 182.25942533 C108.25180452 186.20306751 108.25840389 190.14669448 108.26342177 194.09033442 C108.27060659 200.98402864 108.27044991 207.87769148 108.26532745 214.7713871 C108.25773077 225.02293465 108.26164637 235.27445595 108.26774407 245.52600335 C108.2782528 263.84025583 108.27737185 282.15449433 108.27158624 300.46874814 C108.26654813 316.49620082 108.26524499 332.52364838 108.26763153 348.55110168 C108.26786069 350.1479958 108.26786069 350.1479958 108.26809447 351.77715041 C108.26871718 356.09907568 108.26935399 360.42100095 108.270014 364.74292622 C108.27612715 405.25672798 108.27059276 445.77052084 108.2598202 486.28432123 C108.25032954 522.2505874 108.25117881 558.21683942 108.26074219 594.18310547 C108.27145963 634.62448198 108.27569355 675.06585064 108.26951766 715.50722837 C108.26887626 719.82111835 108.26825058 724.13500833 108.26763153 728.44889832 C108.26747338 729.51102887 108.26731522 730.57315942 108.26715227 731.66747575 C108.26488071 747.68186852 108.26753157 763.6962556 108.27259064 779.71064758 C108.27831648 797.92615291 108.27686387 816.1416421 108.26602915 834.35714543 C108.26017028 844.54216028 108.25975337 854.72714016 108.2673215 864.91215408 C108.27182475 871.72602019 108.26898191 878.53985842 108.26031196 885.35372042 C108.255581 889.22875143 108.25387166 893.10371326 108.26112393 896.97874194 C108.31698777 929.18911961 108.31698777 929.18911961 106 944 C105.67 944.33 105.34 944.66 105 945 C104.45742959 947.93170397 104.0347021 950.87507742 103.59765625 953.82421875 C102.99339896 957.03507612 102.0876485 959.92160135 101 963 C100.62101562 964.17175781 100.24203125 965.34351563 99.8515625 966.55078125 C97.56956081 973.54940428 95.15588673 980.33757246 92 987 C91.34 987 90.68 987 90 987 C89.92394531 987.65355469 89.84789062 988.30710937 89.76953125 988.98046875 C88.70952384 993.13978718 86.77581223 996.58112172 84.6875 1000.3125 C84.24672119 1001.10213135 83.80594238 1001.8917627 83.35180664 1002.70532227 C78.59347152 1011.01683554 72.94973625 1018.51633105 67 1026 C66.22785156 1026.99644531 65.45570312 1027.99289062 64.66015625 1029.01953125 C56.4990598 1039.33527522 47.46516462 1048.11557276 37.0625 1056.125 C35.9796875 1056.9600708 35.9796875 1056.9600708 34.875 1057.81201172 C31.38028711 1060.43876204 28.21963106 1062.66226961 24 1064 C24 1064.66 24 1065.32 24 1066 C20.59144141 1068.01406709 17.17192267 1070.00873701 13.75 1072 C12.78191406 1072.57234375 11.81382812 1073.1446875 10.81640625 1073.734375 C9.88183594 1074.27578125 8.94726562 1074.8171875 7.984375 1075.375 C7.12553711 1075.87773438 6.26669922 1076.38046875 5.38183594 1076.8984375 C3 1078 3 1078 -1 1078 C-1 1078.66 -1 1079.32 -1 1080 C-2.46759766 1080.58007812 -2.46759766 1080.58007812 -3.96484375 1081.171875 C-5.28914704 1081.6977038 -6.61335959 1082.22376117 -7.9375 1082.75 C-8.62900146 1083.02368408 -9.32050293 1083.29736816 -10.03295898 1083.5793457 C-13.6082913 1085.00453674 -17.10266618 1086.49704888 -20.5625 1088.1875 C-25.39325348 1090.40083001 -30.47131951 1091.29755816 -35.66796875 1092.2890625 C-38.89647374 1092.97791116 -41.88212739 1093.92431373 -45 1095 C-63.21942548 1100.86238061 -83.82506962 1099.29348078 -102.7290938 1099.25693511 C-106.55930598 1099.2517918 -110.38950277 1099.25840876 -114.21971267 1099.26342177 C-120.911179 1099.27059757 -127.60261298 1099.27045558 -134.29408073 1099.26532745 C-144.24494014 1099.25772237 -154.19577255 1099.26165066 -164.14663181 1099.26774407 C-181.92470267 1099.27824624 -199.7027591 1099.27737451 -217.48083131 1099.27158624 C-233.03852691 1099.26654604 -248.59621725 1099.26524596 -264.1539135 1099.26763153 C-265.18772734 1099.2677843 -266.22154119 1099.26793707 -267.28668273 1099.26809447 C-271.48374129 1099.26871719 -275.68079985 1099.269354 -279.8778584 1099.270014 C-319.21160497 1099.27612555 -358.54534239 1099.27059523 -397.87908755 1099.2598202 C-432.79171106 1099.25032901 -467.70431998 1099.25117959 -502.61694336 1099.26074219 C-541.88236637 1099.27146119 -581.14778129 1099.27569275 -620.41320556 1099.26951766 C-624.60210446 1099.26887627 -628.79100336 1099.26825058 -632.97990227 1099.26763153 C-634.01124309 1099.26747338 -635.0425839 1099.26731522 -636.10517748 1099.26715227 C-651.65023999 1099.26488142 -667.19529665 1099.26753023 -682.74035835 1099.27259064 C-700.42255681 1099.27831821 -718.10473864 1099.27686016 -735.78693504 1099.26602915 C-745.67180925 1099.26017332 -755.55664744 1099.25974895 -765.44152069 1099.2673215 C-772.05652705 1099.27182841 -778.67150471 1099.2689754 -785.28650684 1099.26031196 C-789.04710325 1099.25558603 -792.80762847 1099.25386088 -796.56822247 1099.26112393 C-837.95392289 1099.33503561 -837.95392289 1099.33503561 -857 1094 C-858.07121094 1093.70738281 -859.14242187 1093.41476562 -860.24609375 1093.11328125 C-864.77657397 1091.7696945 -869.22908975 1090.25150489 -873.6875 1088.6875 C-874.56438477 1088.38062256 -875.44126953 1088.07374512 -876.34472656 1087.75756836 C-883.00385522 1085.40357251 -889.53580283 1082.85107883 -896 1080 C-896 1079.34 -896 1078.68 -896 1078 C-896.886875 1077.896875 -897.77375 1077.79375 -898.6875 1077.6875 C-904.95153349 1076.38741758 -910.16391313 1071.97302079 -915.4765625 1068.5234375 C-917.98513398 1066.8829598 -917.98513398 1066.8829598 -921 1066 C-921 1065.34 -921 1064.68 -921 1064 C-921.72574219 1063.7421875 -922.45148438 1063.484375 -923.19921875 1063.21875 C-926.12047667 1061.94757501 -928.30872649 1060.45983598 -930.8125 1058.5 C-931.99779297 1057.58734375 -931.99779297 1057.58734375 -933.20703125 1056.65625 C-933.79871094 1056.1096875 -934.39039063 1055.563125 -935 1055 C-935 1054.34 -935 1053.68 -935 1053 C-935.58571777 1052.89727783 -936.17143555 1052.79455566 -936.77490234 1052.6887207 C-939.372306 1051.88476243 -940.62259787 1050.82995086 -942.6015625 1048.98046875 C-943.25640625 1048.37009766 -943.91125 1047.75972656 -944.5859375 1047.13085938 C-945.25882813 1046.48955078 -945.93171875 1045.84824219 -946.625 1045.1875 C-947.305625 1044.55779297 -947.98625 1043.92808594 -948.6875 1043.27929688 C-951.81271441 1040.3362837 -954.2409677 1037.97003065 -956 1034 C-956.66 1034 -957.32 1034 -958 1034 C-963 1028.64285714 -963 1028.64285714 -963 1025 C-963.66 1025 -964.32 1025 -965 1025 C-970.43936749 1018.55606463 -974.78501884 1011.27742841 -979 1004 C-979.5775 1003.05253906 -980.155 1002.10507813 -980.75 1001.12890625 C-991 984.14129849 -991 984.14129849 -991 976 C-991.66 976 -992.32 976 -993 976 C-993.33773437 974.89140625 -993.67546875 973.7828125 -994.0234375 972.640625 C-994.47377534 971.17702702 -994.92430633 969.71348845 -995.375 968.25 C-995.59671875 967.52039062 -995.8184375 966.79078125 -996.046875 966.0390625 C-997.33664443 961.84564495 -997.33664443 961.84564495 -999.1015625 957.83984375 C-1000.30613549 955.37308777 -1000.60308874 953.02354565 -1001 950.3125 C-1001.56423212 946.64276982 -1002.18354008 943.0444911 -1003.0625 939.4375 C-1005.22289507 929.98261347 -1005.14509508 920.28633455 -1005.12863445 910.63735008 C-1005.13038749 909.32632645 -1005.13214053 908.01530282 -1005.13394669 906.6645512 C-1005.13865033 903.03883514 -1005.13718362 899.41314437 -1005.13466892 895.78742711 C-1005.13302977 891.83772203 -1005.13718171 887.88802222 -1005.14057809 883.93831885 C-1005.14572371 877.02011481 -1005.14715075 870.10191777 -1005.14612198 863.18371201 C-1005.14459586 852.89572857 -1005.14876146 842.60775287 -1005.1539966 832.31977094 C-1005.16366489 812.87501157 -1005.16648065 793.43025484 -1005.16705366 773.98549335 C-1005.16751331 758.96826042 -1005.16957217 743.95102852 -1005.17275429 728.93379593 C-1005.17365184 724.61019091 -1005.17454165 720.28658589 -1005.17542917 715.96298087 C-1005.17565021 714.88810087 -1005.17587126 713.81322088 -1005.17609901 712.70576876 C-1005.18225278 682.47333231 -1005.18619962 652.2408962 -1005.18575573 622.00845909 C-1005.18574015 620.86874586 -1005.18572457 619.72903263 -1005.18570852 618.55478263 C-1005.18562541 612.77832105 -1005.18552637 607.00185946 -1005.18542381 601.22539787 C-1005.18540387 600.07818454 -1005.18538392 598.93097121 -1005.18536337 597.74899384 C-1005.18532294 595.42904896 -1005.18528114 593.10910409 -1005.18523798 590.78915921 C-1005.18462527 554.69683779 -1005.1921313 518.60452576 -1005.20581055 482.51220703 C-1005.22117508 441.95666103 -1005.22977655 401.40112121 -1005.22884732 360.84557211 C-1005.22877269 356.52008096 -1005.22872399 352.19458981 -1005.22869301 347.86909866 C-1005.22868135 346.80406419 -1005.2286697 345.73902971 -1005.22865769 344.64172146 C-1005.22862694 327.51164477 -1005.23500948 310.38157625 -1005.24362527 293.25150199 C-1005.25210705 276.03159747 -1005.25308759 258.81170488 -1005.24651595 241.59179942 C-1005.24282382 231.36620632 -1005.2446426 221.14064948 -1005.25445829 210.91506022 C-1005.26046618 204.07765837 -1005.25915383 197.24028274 -1005.25198779 190.40288208 C-1005.24811314 186.51178715 -1005.24731078 182.6207623 -1005.25544515 178.72967236 C-1005.31755629 146.95955402 -1005.31755629 146.95955402 -1003 135 C-1002.67 134.67 -1002.34 134.34 -1002 134 C-1001.46823602 131.42608359 -1001.03569201 128.84140483 -1000.59765625 126.25 C-1000.40042969 125.5075 -1000.20320312 124.765 -1000 124 C-999.01 123.505 -999.01 123.505 -998 123 C-998.50562517 129.1340317 -999.31064001 135.12434382 -1000.5 141.1640625 C-1001.91073819 149.16559314 -1002.1423914 156.87574928 -1002.12863445 164.99071312 C-1002.13038749 166.29797562 -1002.13214053 167.60523812 -1002.13394669 168.95211464 C-1002.13866779 172.58127539 -1002.13717789 176.21041098 -1002.13466892 179.83957295 C-1002.13303428 183.78781195 -1002.13717799 187.73604561 -1002.14057809 191.6842829 C-1002.14573105 198.60459479 -1002.14714947 205.52489969 -1002.14612198 212.44521332 C-1002.14459773 222.73643266 -1002.14875737 233.02764426 -1002.1539966 243.3188621 C-1002.16367228 262.76995965 -1002.16648095 282.22105456 -1002.16705366 301.67215423 C-1002.16751312 316.69564789 -1002.16957101 331.7191405 -1002.17275429 346.74263382 C-1002.17365183 351.06645032 -1002.17454165 355.39026681 -1002.17542917 359.71408331 C-1002.17565021 360.78899592 -1002.17587126 361.86390854 -1002.17609901 362.97139426 C-1002.18225427 393.21204093 -1002.18619948 423.45268725 -1002.18575573 453.69333458 C-1002.18573236 455.40391367 -1002.18573236 455.40391367 -1002.18570852 457.14904991 C-1002.18562541 462.92903602 -1002.18552637 468.70902213 -1002.18542381 474.48900823 C-1002.18540387 475.63693738 -1002.18538392 476.78486654 -1002.18536337 477.96758142 C-1002.18532294 480.28897636 -1002.18528114 482.6103713 -1002.18523798 484.93176624 C-1002.18462543 521.03703439 -1002.1921277 557.14229314 -1002.20581055 593.24755859 C-1002.22117663 633.81114955 -1002.22977642 674.37473433 -1002.22884732 714.93832839 C-1002.22877269 719.26528843 -1002.22872399 723.59224848 -1002.22869301 727.91920853 C-1002.22867553 729.51731836 -1002.22867553 729.51731836 -1002.22865769 731.14771324 C-1002.22862694 748.28240648 -1002.23500908 765.41709155 -1002.24362527 782.55178236 C-1002.25210912 799.77991177 -1002.253086 817.00802926 -1002.24651595 834.23615961 C-1002.24282493 844.46597065 -1002.24463926 854.69574543 -1002.25445829 864.92555262 C-1002.26046919 871.76714874 -1002.2591505 878.60871867 -1002.25198779 885.4503136 C-1002.2481156 889.34303679 -1002.24730358 893.23568994 -1002.25544515 897.12840812 C-1002.36417325 931.83868675 -1002.36417325 931.83868675 -993 965 C-992.57441472 966.47088246 -992.17551926 967.94993989 -991.8125 969.4375 C-989.80052077 976.37935505 -986.33218469 982.61126617 -983.015625 988.99804688 C-982.08260509 990.83717265 -981.21002873 992.70663604 -980.34375 994.578125 C-976.41074499 1003.02251812 -971.50233 1010.0285013 -965.796875 1017.35546875 C-963.592637 1020.18792914 -961.59162587 1023.07942233 -959.6875 1026.125 C-957.45243873 1029.58215617 -954.97179441 1031.94604599 -951.7578125 1034.4921875 C-949.89789607 1036.08758248 -948.47359876 1037.78088495 -946.9375 1039.6875 C-942.24019138 1045.24081019 -936.35519263 1049.417153 -930.5859375 1053.78588867 C-929.20259036 1054.84490735 -927.84495735 1055.9373477 -926.4921875 1057.03515625 C-908.14963097 1071.49645082 -887.1457346 1080.99664803 -865 1088 C-864.21882812 1088.26554687 -863.43765625 1088.53109375 -862.6328125 1088.8046875 C-857.44163022 1090.50012414 -852.17853098 1091.63586707 -846.8125 1092.625 C-846.16643799 1092.74818604 -845.52037598 1092.87137207 -844.85473633 1092.99829102 C-833.16683082 1095.03961863 -821.15886324 1095.14923655 -809.32698059 1095.13142776 C-808.03100287 1095.1334804 -806.73502516 1095.13553303 -805.39977539 1095.13764787 C-801.8349198 1095.14314887 -798.27008854 1095.14255436 -794.7052301 1095.14087028 C-790.81457325 1095.14013302 -786.92392292 1095.14517639 -783.03326893 1095.1494453 C-775.33153265 1095.15699063 -767.62980331 1095.15921658 -759.92806372 1095.15977435 C-750.69720014 1095.16069138 -741.4663429 1095.16736876 -732.23548207 1095.17412117 C-709.93547618 1095.19014536 -687.63547101 1095.19607953 -665.33546041 1095.20086992 C-654.78307584 1095.20320858 -644.23069182 1095.20681143 -633.67830767 1095.2105653 C-597.54224787 1095.22339509 -561.40618837 1095.23411676 -525.27012634 1095.2375679 C-523.00387957 1095.23778953 -520.73763279 1095.23801132 -518.47138602 1095.23823325 C-516.1997627 1095.23845389 -513.92813939 1095.23867437 -511.65651608 1095.2388947 C-507.09946124 1095.23933725 -502.5424064 1095.23978436 -497.98535156 1095.24023438 C-496.29053791 1095.24039846 -496.29053791 1095.24039846 -494.5614856 1095.24056586 C-457.90519375 1095.24419847 -421.24892166 1095.26012913 -384.59263737 1095.28342474 C-345.8171966 1095.30802201 -307.04176712 1095.3217406 -268.26631832 1095.32293582 C-264.01001421 1095.32310727 -259.75371011 1095.3233227 -255.49740601 1095.32357025 C-254.44942049 1095.32362602 -253.40143498 1095.32368179 -252.32169233 1095.32373925 C-235.46294624 1095.32488948 -218.60422046 1095.33590867 -201.74548122 1095.35045731 C-184.80390741 1095.36482479 -167.86235961 1095.36805777 -150.92078137 1095.36001733 C-140.85914101 1095.35556302 -130.79758467 1095.35941391 -120.73595536 1095.37525584 C-114.01053594 1095.3850148 -107.2851753 1095.38381884 -100.55975639 1095.37381961 C-96.73102371 1095.36843441 -92.90245222 1095.36769534 -89.07373297 1095.38032833 C-68.32847779 1095.61373911 -68.32847779 1095.61373911 -48 1092 C-46.30294018 1091.59276674 -44.60518522 1091.18839956 -42.90625 1090.7890625 C-41.43588727 1090.40719841 -39.96709052 1090.01924884 -38.5 1089.625 C-37.31216919 1089.30801147 -37.31216919 1089.30801147 -36.1003418 1088.98461914 C-25.70610698 1086.16253692 -15.52838598 1083.10449249 -6 1078 C-3.66666667 1077 -1.33333333 1076 1 1075 C19.62371207 1066.23046086 35.63538937 1053.76032974 50.390625 1039.54638672 C51.69699196 1038.29114881 53.01820378 1037.05137348 54.34375 1035.81640625 C66.4098206 1024.3190234 76.44084289 1009.75744853 83.62890625 994.81640625 C84.88312332 992.24008001 86.21712853 989.7447996 87.625 987.25 C88.02847656 986.52683594 88.43195313 985.80367187 88.84765625 985.05859375 C89.57736256 983.75501671 90.31355833 982.45503332 91.05859375 981.16015625 C94.14053794 975.4879399 95.75263713 969.49212882 97.39208984 963.27294922 C98.08923862 960.66634076 98.82057006 958.07019125 99.55078125 955.47265625 C100.09736342 953.48204768 100.64293395 951.49116106 101.1875 949.5 C101.44966309 948.57566162 101.71182617 947.65132324 101.98193359 946.69897461 C105.17818689 934.77401002 105.14983358 922.53470571 105.12584114 910.25982666 C105.12729458 908.94444271 105.12874802 907.62905875 105.13024551 906.27381468 C105.1341087 902.64987546 105.13182598 899.02596319 105.12846755 895.40202445 C105.12591662 891.44907686 105.12919638 887.49613321 105.13171089 883.54318619 C105.13531356 876.62402858 105.13521856 869.70487879 105.13266373 862.78572083 C105.1288749 852.49652996 105.13081828 842.20734566 105.13387203 831.91815484 C105.13913373 813.53965332 105.13868299 795.16115529 105.13579312 776.78265345 C105.13327658 760.69921814 105.13262133 744.6157841 105.13381577 728.53234863 C105.13389215 727.46508302 105.13396854 726.39781741 105.13404724 725.29821041 C105.13435858 720.96572286 105.13467698 716.63323531 105.135007 712.30074777 C105.13806531 671.66697396 105.13529362 631.03320237 105.1299101 590.3994289 C105.12516458 554.30664933 105.12558921 518.21387329 105.13037109 482.12109375 C105.13572688 441.56116049 105.13784841 401.00122919 105.13475883 360.44129562 C105.13443812 356.11674754 105.13412528 351.79219945 105.13381577 347.46765137 C105.13373669 346.40285412 105.13365761 345.33805688 105.13357614 344.24099305 C105.13243914 328.16851469 105.13376805 312.09603774 105.13629532 296.02355957 C105.13915491 277.74662344 105.13843903 259.46969133 105.13301457 241.1927557 C105.13007955 230.96652681 105.12988482 220.74030664 105.13366075 210.51407798 C105.1359056 203.68018736 105.13450308 196.84630372 105.13015598 190.01241414 C105.12778118 186.12093231 105.1269556 182.22946775 105.13056196 178.33798647 C105.13441379 174.13870114 105.13048116 169.93945787 105.12584114 165.74017334 C105.12818231 164.54239872 105.13052347 163.34462409 105.13293558 162.11055326 C105.10467384 149.30370286 104.28978858 137.34316175 100.75 125 C100.27421509 123.299646 100.27421509 123.299646 99.78881836 121.56494141 C95.56237696 106.66382051 90.39455117 92.42340516 82.2578125 79.16015625 C81 77 81 77 81 75 C80.34 75 79.68 75 79 75 C78.71769531 74.3915625 78.43539063 73.783125 78.14453125 73.15625 C73.41212087 63.71918532 66.80342203 56.00428999 60 48 C59.28972656 47.15695313 58.57945313 46.31390625 57.84765625 45.4453125 C42.63615566 27.71580841 22.95625057 13.24867728 2 3 C2 2.34 2 1.68 2 1 C1.34 0.67 0.68 0.34 0 0 Z " fill="#040302" transform="translate(1076,85)"/>
<path d="M0 0 C1.05411929 -0.00250352 2.10823859 -0.00500704 3.19430089 -0.00758642 C4.36897758 -0.00524525 5.54365427 -0.00290409 6.75392723 -0.00049198 C8.61410803 -0.00267214 8.61410803 -0.00267214 10.51186824 -0.00489634 C13.98525299 -0.00793819 17.45858441 -0.00644411 20.93196556 -0.00311839 C24.69890809 -0.00059769 28.46584617 -0.00383521 32.23278809 -0.00636172 C38.84513542 -0.0099865 45.4574746 -0.00985585 52.06982231 -0.00731456 C61.90230437 -0.00354588 71.73477951 -0.0054586 81.56726152 -0.00852287 C99.12385913 -0.01380027 116.68045311 -0.01332759 134.23705107 -0.01044396 C149.60071925 -0.00793276 164.96438609 -0.00726966 180.32805443 -0.0084666 C181.3454191 -0.00854299 182.36278377 -0.00861937 183.41097768 -0.00869807 C187.54033445 -0.00900939 191.66969122 -0.00932778 195.79904798 -0.00965784 C234.57046701 -0.01271987 273.34188371 -0.00993857 312.11330238 -0.00456094 C346.59266352 0.000185 381.07202096 -0.00023961 415.55138206 -0.00502193 C454.24989377 -0.01037145 492.94840342 -0.01250275 531.64691544 -0.00940967 C535.76894061 -0.00908893 539.89096578 -0.00877609 544.01299095 -0.0084666 C545.53551875 -0.00834799 545.53551875 -0.00834799 547.08880468 -0.00822697 C562.44638719 -0.00708738 577.80396822 -0.0084237 593.16155052 -0.01094615 C610.61608902 -0.01379865 628.0706233 -0.01310507 645.52516127 -0.00766541 C655.30525666 -0.00471838 665.08534294 -0.00455285 674.86543811 -0.00831159 C681.38581657 -0.0105421 687.90618768 -0.00918008 694.42656504 -0.00480682 C698.1498752 -0.00241192 701.87316717 -0.00164777 705.59647679 -0.0052128 C709.59336714 -0.00900104 713.59022822 -0.00517639 717.58711815 -0.00049198 C718.76179484 -0.00283314 719.93647153 -0.00517431 721.14674449 -0.00758642 C722.20086378 -0.0050829 723.25498308 -0.00257938 724.34104538 0 C725.71435314 0.00010164 725.71435314 0.00010164 727.11540449 0.00020533 C729.17052269 0.12534916 729.17052269 0.12534916 730.17052269 1.12534916 C731.82215886 1.30578476 733.48048809 1.42557925 735.13927269 1.51988041 C749.63962178 2.44667902 763.60074178 3.60175245 777.17052269 9.12534916 C779.24905347 9.76613974 781.33280059 10.39016952 783.42052269 11.00034916 C792.50597464 13.76993013 800.72466553 17.82307537 809.17052269 22.12534916 C806.69389944 23.03694013 805.55396082 23.27720717 803.06041527 22.2896558 C802.29882103 21.85516118 801.53722679 21.42066655 800.75255394 20.97300541 C768.3601767 3.81991741 729.8380931 2.79381178 694.12165101 2.87461542 C690.42698117 2.88069016 686.73232424 2.87492777 683.03765428 2.87079459 C676.5873547 2.8651561 670.13709051 2.86681322 663.68679237 2.87347996 C654.09474077 2.88336619 644.50271468 2.88164773 634.91066002 2.87772967 C618.76434115 2.87147686 602.61803694 2.87460055 586.47171974 2.88332379 C570.48746288 2.89195735 554.50321262 2.89684349 538.51895332 2.89665616 C537.02393276 2.89664469 537.02393276 2.89664469 535.49870975 2.89663299 C531.45236769 2.89659207 527.40602563 2.89652646 523.35968357 2.89642717 C485.45119685 2.89552238 447.54272015 2.90544689 409.6342369 2.92085684 C375.98340753 2.93448563 342.33258527 2.94071779 308.68175316 2.94004643 C306.52000752 2.94000602 304.35826187 2.93996566 302.19651623 2.93992535 C301.12776831 2.939905 300.05902039 2.93988465 298.95788617 2.93986368 C293.57749968 2.93976288 288.19711318 2.9396723 282.81672668 2.93959343 C281.22438216 2.93956836 281.22438216 2.93956836 279.59986905 2.93954279 C251.44318589 2.93917736 223.28650361 2.94371893 195.12982118 2.94992 C194.1278544 2.95014027 193.12588761 2.95036054 192.0935582 2.95058749 C188.06482681 2.95147567 184.03609543 2.95236408 180.00736406 2.95327845 C166.01375045 2.95643332 152.02013755 2.95794704 138.02652361 2.95838994 C119.99456012 2.95898787 101.96260248 2.9629991 83.93064149 2.97282139 C74.4028435 2.97792231 64.8750541 2.98035047 55.34725481 2.97882521 C48.9741662 2.97808761 42.60108589 2.98101797 36.22799994 2.98686902 C32.60316522 2.99010009 28.9783484 2.99182795 25.35351284 2.98910842 C-1.66441682 2.5885986 -1.66441682 2.5885986 -28.39197731 5.93784916 C-29.26056374 6.1138062 -30.12915016 6.28976323 -31.02405739 6.47105229 C-33.62964653 7.006118 -36.22978566 7.56240012 -38.82947731 8.12534916 C-39.62901833 8.29469975 -40.42855934 8.46405034 -41.25232887 8.63853276 C-49.05537717 10.30455373 -56.6001737 12.03741523 -63.84900856 15.48863041 C-66.22509946 16.2525413 -67.5047286 15.9350931 -69.82947731 15.12534916 C-63.6362967 12.37981055 -57.65662484 9.7768598 -50.96228981 8.58238041 C-48.17126327 7.9843033 -45.53526623 7.03180543 -42.82947731 6.12534916 C-33.1060394 3.45040063 -23.41326324 2.50373555 -13.38636208 1.77183354 C-12.42270729 1.70029057 -11.45905251 1.6287476 -10.46619606 1.55503666 C-9.5969651 1.49557866 -8.72773415 1.43612065 -7.83216286 1.37486088 C-4.86847338 1.00561906 -3.35472499 0.00024828 0 0 Z " fill="#070604" transform="translate(266.82947731018066,61.874650835990906)"/>
<path d="M0 0 C0.79475739 0.00121857 1.58951477 0.00243713 2.40835571 0.00369263 C10.6508284 0.08505371 18.78557464 0.8441884 26.96972656 1.77880859 C29.44468308 2.05994057 31.92120385 2.32180541 34.3984375 2.58203125 C35.9897059 2.75669947 37.5808572 2.93243861 39.171875 3.109375 C39.90409271 3.18654755 40.63631042 3.26372009 41.39071655 3.3432312 C44.97191803 3.76273024 47.93065118 4.26758312 51.0234375 6.1796875 C50.6934375 7.1696875 50.3634375 8.1596875 50.0234375 9.1796875 C53.9834375 11.1596875 57.9434375 13.1396875 62.0234375 15.1796875 C61.3634375 15.8396875 60.7034375 16.4996875 60.0234375 17.1796875 C59.0334375 16.1896875 59.0334375 16.1896875 58.0234375 15.1796875 C56.10451359 14.50586403 56.10451359 14.50586403 53.859375 14.03125 C52.99707275 13.83257324 52.13477051 13.63389648 51.24633789 13.42919922 C50.30653076 13.22311035 49.36672363 13.01702148 48.3984375 12.8046875 C47.41931396 12.58699707 46.44019043 12.36930664 45.43139648 12.14501953 C26.79903041 8.09585544 7.93821281 5.49600028 -10.9765625 3.1796875 C-10.9765625 2.5196875 -10.9765625 1.8596875 -10.9765625 1.1796875 C-7.27962806 -0.05262398 -3.85109834 -0.00659671 0 0 Z " fill="#EAE3D6" transform="translate(582.9765625,708.8203125)"/>
<path d="M0 0 C5.27380059 0.50326526 9.17681456 3.25785535 13.5625 6 C14.35664307 6.49113281 15.15078613 6.98226562 15.96899414 7.48828125 C31.11164016 16.9717711 31.11164016 16.9717711 36.62890625 22.6875 C38.08061792 24.26441859 38.08061792 24.26441859 41 25 C42.16768322 26.10364209 43.32686762 27.21780796 44.43896484 28.37744141 C46.32408041 30.33685305 48.26437098 32.23436085 50.20703125 34.13671875 C51.74229703 35.65353498 53.2774507 37.17046469 54.8125 38.6875 C55.60076172 39.45900391 56.38902344 40.23050781 57.20117188 41.02539062 C57.94560547 41.76337891 58.69003906 42.50136719 59.45703125 43.26171875 C60.13741455 43.93162842 60.81779785 44.60153809 61.51879883 45.29174805 C63 47 63 47 63 49 C63.66 49 64.32 49 65 49 C65.495 50.98 65.495 50.98 66 53 C66.66 53 67.32 53 68 53 C69.48889991 54.90736872 70.84756898 56.80372381 72.1875 58.8125 C72.79078125 59.70437012 72.79078125 59.70437012 73.40625 60.61425781 C74.61185857 62.40449085 75.80642292 64.20173159 77 66 C77.60457031 66.89589844 78.20914062 67.79179687 78.83203125 68.71484375 C87.82273479 82.37987091 95.41696556 97.08879244 100.05078125 112.78515625 C100.64603552 114.80118203 101.26491956 116.81054111 101.91796875 118.80859375 C103.52049881 123.75160901 104.33904466 127.8013152 104 133 C104.66 133 105.32 133 106 133 C106.84023188 137.35332736 107.10770995 141.44442519 107.0625 145.875 C107.05347656 147.02742187 107.04445313 148.17984375 107.03515625 149.3671875 C107.02355469 150.23601562 107.01195312 151.10484375 107 152 C106.34 152 105.68 152 105 152 C105.00902344 151.29101562 105.01804687 150.58203125 105.02734375 149.8515625 C104.36025415 125.89434466 94.74444134 99.5139212 82.2578125 79.16015625 C81 77 81 77 81 75 C80.34 75 79.68 75 79 75 C78.71769531 74.3915625 78.43539063 73.783125 78.14453125 73.15625 C73.41212087 63.71918532 66.80342203 56.00428999 60 48 C59.28972656 47.15695313 58.57945313 46.31390625 57.84765625 45.4453125 C42.63615566 27.71580841 22.95625057 13.24867728 2 3 C2 2.34 2 1.68 2 1 C1.34 0.67 0.68 0.34 0 0 Z " fill="#030201" transform="translate(1076,85)"/>
<path d="M0 0 C0.33 0 0.66 0 1 0 C2.09627971 6.19668901 2.14275694 12.25329998 2.13371277 18.53604126 C2.13597833 19.69257875 2.13824388 20.84911624 2.14057809 22.04070032 C2.14580104 25.23784469 2.14656506 28.43495356 2.14538372 31.63210082 C2.14517915 35.08556884 2.15070385 38.53902855 2.15544128 41.99249268 C2.16373703 48.75438931 2.16649566 55.51627723 2.16705366 62.27817853 C2.16752944 67.77799689 2.16958727 73.27781239 2.17275429 78.77762985 C2.18155879 94.38627872 2.18617411 109.99492072 2.18542381 125.60357209 C2.18538386 126.4445056 2.1853439 127.28543912 2.18530273 128.15185547 C2.18526185 128.99382152 2.18522097 129.83578757 2.18517885 130.70326774 C2.18477269 144.33842307 2.19433528 157.97355075 2.2084411 171.60869808 C2.22282575 185.62452824 2.2297101 199.64034493 2.22884732 213.65618265 C2.22851602 221.51874165 2.23123364 229.38127167 2.24202538 237.24382401 C2.251158 243.94032725 2.25328312 250.63678839 2.24651595 257.33329518 C2.24326432 260.7455328 2.24314453 264.15768978 2.2518692 267.56991959 C2.2596216 271.28070319 2.25492268 274.99127757 2.24723816 278.70205688 C2.2549535 280.29563819 2.2549535 280.29563819 2.26282471 281.92141306 C2.22867286 289.42825683 1.31359073 296.61302722 0 304 C-2 301 -2 301 -2 299 C-1.34 299 -0.68 299 0 299 C-0.33 295.04 -0.66 291.08 -1 287 C-0.67 287 -0.34 287 0 287 C0.33 195.26 0.66 103.52 1 9 C0.34 8.67 -0.32 8.34 -1 8 C-0.67 5.36 -0.34 2.72 0 0 Z " fill="#60584C" transform="translate(345,374)"/>
<path d="M0 0 C39.6 0 79.2 0 120 0 C120 0.66 120 1.32 120 2 C81.06 2 42.12 2 2 2 C2 2.99 2 3.98 2 5 C3.32 5.33 4.64 5.66 6 6 C4.02 6 2.04 6 0 6 C0 4.02 0 2.04 0 0 Z " fill="#D3CEC1" transform="translate(679,426)"/>
<path d="M0 0 C0.66 0.33 1.32 0.66 2 1 C-0.89517397 3.91783678 -3.82193234 6.79575718 -6.78515625 9.64453125 C-25.89444802 28.17123627 -41.65552657 49.86788799 -51 75 C-51.63421875 76.61455078 -51.63421875 76.61455078 -52.28125 78.26171875 C-54.44940134 83.78924411 -56.52776592 89.24490313 -58 95 C-58.33 95 -58.66 95 -59 95 C-58.62769301 87.9428793 -57.29356172 82.06590663 -54.5625 75.5625 C-54.04429688 74.2945459 -54.04429688 74.2945459 -53.515625 73.00097656 C-49.61369154 63.69079786 -44.87448319 54.83000644 -40 46 C-39.34 46 -38.68 46 -38 46 C-37.89429687 45.42121094 -37.78859375 44.84242188 -37.6796875 44.24609375 C-36.9011107 41.67321064 -35.79421417 40.15939839 -34.125 38.0625 C-32.45915893 35.95717824 -30.95543414 33.9244479 -29.58984375 31.609375 C-27.7525779 28.59391165 -25.6638589 25.92735189 -23.4375 23.1875 C-22.65246094 22.21167969 -21.86742187 21.23585937 -21.05859375 20.23046875 C-20.37925781 19.49441406 -19.69992188 18.75835937 -19 18 C-18.34 18 -17.68 18 -17 18 C-16.34 16.68 -15.68 15.36 -15 14 C-14.34 14 -13.68 14 -13 14 C-12.67 13.01 -12.34 12.02 -12 11 C-11.34 11 -10.68 11 -10 11 C-9.34 9.68 -8.68 8.36 -8 7 C-7.34 7 -6.68 7 -6 7 C-5.67 6.01 -5.34 5.02 -5 4 C-3.37667033 2.61423077 -1.71275535 1.27358732 0 0 Z " fill="#030201" transform="translate(137,113)"/>
<path d="M0 0 C35.94152415 -0.63240218 35.94152415 -0.63240218 52.4375 5.9765625 C55.33374089 7.13329285 58.25686657 8.0001953 61.25 8.875 C70.33545195 11.64458097 78.55414284 15.69772621 87 20 C84.52337675 20.91159097 83.38343813 21.151858 80.88989258 20.16430664 C79.74750122 19.5125647 79.74750122 19.5125647 78.58203125 18.84765625 C54.63434606 6.16637792 26.62360255 2.71025101 0 1 C0 0.67 0 0.34 0 0 Z " fill="#090704" transform="translate(989,64)"/>
<path d="M0 0 C0.91330078 0.00451172 1.82660156 0.00902344 2.76757812 0.01367188 C4.99095738 0.0253126 7.21419121 0.04166149 9.4375 0.0625 C9.4375 0.3925 9.4375 0.7225 9.4375 1.0625 C7.85388672 1.10117188 7.85388672 1.10117188 6.23828125 1.140625 C-5.99181147 1.56196618 -17.61800105 3.47598393 -29.5625 6.0625 C-30.76181152 6.31652588 -30.76181152 6.31652588 -31.98535156 6.57568359 C-39.78839986 8.24170457 -47.33319639 9.97456607 -54.58203125 13.42578125 C-56.95812215 14.18969213 -58.23775129 13.87224393 -60.5625 13.0625 C-54.36931939 10.31696139 -48.38964753 7.71401064 -41.6953125 6.51953125 C-39.42008391 6.07410886 -39.42008391 6.07410886 -36.73046875 5.109375 C-33.42496681 4.0170513 -30.15331011 3.22955357 -26.75 2.5 C-25.60917969 2.25121094 -24.46835938 2.00242187 -23.29296875 1.74609375 C-15.49282517 0.31674807 -7.92173369 -0.07555579 0 0 Z " fill="#090704" transform="translate(257.5625,63.9375)"/>
<path d="M0 0 C1.39702148 0.14018555 1.39702148 0.14018555 2.82226562 0.28320312 C4.26182617 0.43885742 4.26182617 0.43885742 5.73046875 0.59765625 C6.70951172 0.69755859 7.68855469 0.79746094 8.69726562 0.90039062 C11.10493288 1.14702971 13.5116776 1.40048912 15.91796875 1.66015625 C15.91796875 2.32015625 15.91796875 2.98015625 15.91796875 3.66015625 C18.22796875 3.66015625 20.53796875 3.66015625 22.91796875 3.66015625 C22.91796875 3.99015625 22.91796875 4.32015625 22.91796875 4.66015625 C15.81587401 4.86904139 8.95728693 4.05518983 1.91796875 3.16015625 C0.76167969 3.01707031 -0.39460937 2.87398437 -1.5859375 2.7265625 C-4.41853682 2.37541382 -7.25050483 2.01983663 -10.08203125 1.66015625 C-10.08203125 1.33015625 -10.08203125 1.00015625 -10.08203125 0.66015625 C-6.54413781 -0.18483788 -3.61235662 -0.37674885 0 0 Z " fill="#DBD4C7" transform="translate(535.08203125,705.33984375)"/>
<path d="M0 0 C4.29 0.33 8.58 0.66 13 1 C13 1.33 13 1.66 13 2 C11.2984375 2.2165625 11.2984375 2.2165625 9.5625 2.4375 C6.19222799 2.61171478 6.19222799 2.61171478 5 4 C5.78375 4.12375 6.5675 4.2475 7.375 4.375 C10 5 10 5 12 7 C6.72 6.34 1.44 5.68 -4 5 C-4 4.34 -4 3.68 -4 3 C-2.02 2.67 -0.04 2.34 2 2 C1.34 1.34 0.68 0.68 0 0 Z " fill="#D3CCBE" transform="translate(599,710)"/>
<path d="M0 0 C-1.09699219 0.47050781 -2.19398438 0.94101563 -3.32421875 1.42578125 C-4.77872539 2.05450348 -6.23314806 2.68342 -7.6875 3.3125 C-8.40873047 3.62123047 -9.12996094 3.92996094 -9.87304688 4.24804688 C-13.02266494 5.61431955 -15.92295066 6.9512198 -18.83203125 8.79296875 C-19.54746094 9.19128906 -20.26289063 9.58960937 -21 10 C-21.99 9.67 -22.98 9.34 -24 9 C-5.18793829 -1.72931276 -5.18793829 -1.72931276 0 0 Z " fill="#030201" transform="translate(197,79)"/>
<path d="M0 0 C7.28791429 0.46272472 14.6307176 1.6307176 20 7 C17.09308842 7 15.50244563 6.58671508 12.8125 5.625 C8.58131851 4.16142739 4.35606036 3.02961427 0 2 C0 1.34 0 0.68 0 0 Z " fill="#DAD3C6" transform="translate(625,718)"/>
<path d="M0 0 C0 0.66 0 1.32 0 2 C0.99 2 1.98 2 3 2 C3 2.66 3 3.32 3 4 C3.99 4.33 4.98 4.66 6 5 C1.61414247 5.16868683 -1.15524966 5.05053352 -5 3 C-7.66709069 2.83249586 -7.66709069 2.83249586 -10 3 C-7.29536552 -0.8183075 -4.37912428 -0.24787496 0 0 Z " fill="#F4EDE0" transform="translate(612,712)"/>
<path d="M0 0 C1.39439664 0.06665376 2.79169875 0.08538199 4.1875 0.0625 C5.445625 0.041875 6.70375 0.02125 8 0 C7.67 0.99 7.34 1.98 7 3 C4.43719792 2.85845864 1.87484515 2.71191438 -0.6875 2.5625 C-1.40873047 2.52318359 -2.12996094 2.48386719 -2.87304688 2.44335938 C-6.66707282 2.21814322 -10.28651492 1.87160695 -14 1 C-14 0.67 -14 0.34 -14 0 C-9.12463131 -1.14714557 -4.80200003 -1.60066668 0 0 Z " fill="#CEC7BA" transform="translate(586,711)"/>
<path d="M0 0 C0.66 0.99 1.32 1.98 2 3 C-0.64 6.63 -3.28 10.26 -6 14 C-6.99 13.67 -7.98 13.34 -9 13 C-8.51789062 12.31292969 -8.03578125 11.62585938 -7.5390625 10.91796875 C-6.90742187 10.01691406 -6.27578125 9.11585938 -5.625 8.1875 C-4.99851562 7.29417969 -4.37203125 6.40085937 -3.7265625 5.48046875 C-2.46449761 3.66732122 -1.22541192 1.83811789 0 0 Z " fill="#E0D9CB" transform="translate(936,841)"/>
<path d="M0 0 C0.33 0 0.66 0 1 0 C1 5.61 1 11.22 1 17 C-0.65 17 -2.3 17 -4 17 C-4 16.01 -4 15.02 -4 14 C-2.68 14 -1.36 14 0 14 C0 9.38 0 4.76 0 0 Z " fill="#BFB8AC" transform="translate(924,659)"/>
<path d="M0 0 C2 2 2 2 2.265625 4.71484375 C2.26046875 5.77832031 2.2553125 6.84179688 2.25 7.9375 C2.25515625 8.99839844 2.2603125 10.05929687 2.265625 11.15234375 C2 14 2 14 0 17 C-0.33 15.35 -0.66 13.7 -1 12 C-0.34 12 0.32 12 1 12 C0.67 8.04 0.34 4.08 0 0 Z " fill="#4C4438" transform="translate(344,661)"/>
<path d="M0 0 C-1.49041773 3.79379058 -3.69062512 5.68343758 -7 8 C-7.66 8 -8.32 8 -9 8 C-7.47364599 4.11473526 -4.49771687 0 0 0 Z " fill="#3C342A" transform="translate(413,354)"/>
<path d="M0 0 C0 0.66 0 1.32 0 2 C-3.44833324 4.05257931 -5.31661591 5.0632763 -9.375 4.6875 C-10.24125 4.460625 -11.1075 4.23375 -12 4 C-8.36043372 1.57362248 -4.44144233 0 0 0 Z " fill="#494137" transform="translate(647,747)"/>
<path d="M0 0 C0 0.66 0 1.32 0 2 C-3.82320557 3.42258812 -6.91281305 4.24042276 -11 4 C-7.63661956 0.63661956 -4.71164284 0 0 0 Z " fill="#E2DACD" transform="translate(524,771)"/>
<path d="M0 0 C-0.33 0.99 -0.66 1.98 -1 3 C-4.0625 4.1875 -4.0625 4.1875 -7 5 C-7.33 4.01 -7.66 3.02 -8 2 C-5.09399739 0.74335022 -3.20395416 0 0 0 Z " fill="#494035" transform="translate(608,761)"/>
<path d="M0 0 C0.99 0 1.98 0 3 0 C2.3001048 3.14952839 1.34839851 6.0652503 0 9 C-0.99 9.495 -0.99 9.495 -2 10 C-1.34 6.7 -0.68 3.4 0 0 Z " fill="#DAD2C7" transform="translate(875,698)"/>
<path d="M0 0 C4.29 0.33 8.58 0.66 13 1 C13 1.33 13 1.66 13 2 C9.26513121 2.5745952 5.78706732 3 2 3 C1.34 2.01 0.68 1.02 0 0 Z " fill="#DAD2C4" transform="translate(599,710)"/>
<path d="M0 0 C0.33 0 0.66 0 1 0 C1.33 4.29 1.66 8.58 2 13 C1.01 12.34 0.02 11.68 -1 11 C-0.67 7.37 -0.34 3.74 0 0 Z " fill="#080603" transform="translate(73,1009)"/>
<path d="M0 0 C0.66 0.33 1.32 0.66 2 1 C2 1.66 2 2.32 2 3 C-0.97 3.66 -3.94 4.32 -7 5 C-7 4.01 -7 3.02 -7 2 C-4.03 2.495 -4.03 2.495 -1 3 C-0.67 2.01 -0.34 1.02 0 0 Z " fill="#382F25" transform="translate(605,741)"/>
</svg>
